<svg xmlns="http://www.w3.org/2000/svg" viewBox="0 0 620 280" role="img" aria-labelledby="title">
  <title>Epic Pass logo</title>
  <rect width="620" height="280" rx="20" fill="#15185f"/>
  <g fill="#f57c00">
    <path d="M64 167c0-42 34-76 76-76 25 0 48 12 62 32l-34 26c-6-8-16-12-26-12-17 0-30 14-30 30s13 30 30 30c11 0 20-4 26-12l34 26c-14 20-37 32-62 32-42 0-76-34-76-76Zm61-13 32-24-17-18-32 24Z"/>
    <path d="M204 95h40v16c10-12 23-20 42-20 35 0 64 28 64 76s-29 76-64 76c-15 0-27-5-36-14v49l-46 42Zm74 102c16 0 28-13 28-30 0-16-12-30-28-30-17 0-29 14-29 30 0 17 12 30 29 30Z"/>
    <path d="M363 95h47v144h-47Z"/>
    <path d="M414 167c0-42 34-76 76-76 25 0 48 12 62 32l-34 26c-6-8-16-12-26-12-17 0-30 14-30 30s13 30 30 30c11 0 20-4 26-12l34 26c-14 20-37 32-62 32-42 0-76-34-76-76Zm61-13 32-24-17-18-32 24Z" transform="translate(-8 0)"/>
  </g>
</svg>
