<?xml version="1.0" encoding="utf-8"?>
<!-- Generator: Adobe Illustrator 19.2.1, SVG Export Plug-In . SVG Version: 6.00 Build 0)  -->
<svg version="1.1" id="layer" xmlns="http://www.w3.org/2000/svg" xmlns:xlink="http://www.w3.org/1999/xlink" x="0px" y="0px"
	 viewBox="0 0 652 652" style="enable-background:new 0 0 652 652;" xml:space="preserve">
<style type="text/css">
	.st0{fill:#092340;}
	.st1{fill:#F6CA30;}
</style>
<rect x="71.7" y="70.6" class="st0" width="500" height="500"/>
<path class="st1" d="M523,356.9c-0.3,0-0.6,0.1-0.8,0.1c-10,0-20,0-30,0c-0.5,0-1-0.2-1.2-0.6c-18.1-24.5-36.1-49-54.2-73.5
	c-0.1-0.1-0.2-0.2-0.5-0.5V357h-31.6V235.4c0.3,0,0.5,0,0.8,0c10,0,20,0,30,0c0.5,0,0.9,0.1,1.2,0.6c11.5,15.5,23,31.1,34.4,46.6
	l19.6,26.5c0.2,0.2,0.4,0.4,0.7,0.9v-74.5h1l29.8,0c0.3,0,0.6,0.1,0.9,0.1C523,235.5,523,356.9,523,356.9z M523,399.3l-117.2,0h-1.2
	v-8c0.3,0,0.6,0,0.8,0h116.7c0.3,0,0.6,0,0.9,0C523,391.4,523,399.3,523,399.3z M335.3,413.2c-2-0.4-4-0.6-5.9-1.1
	c-1.9-0.5-3.7-1.3-5.7-2l3.9-10c0.4,0.3,0.8,0.5,1.1,0.8c2,1.6,4.3,2.6,6.9,2.8c1,0.1,2.1,0.1,3-0.6c0.5-0.4,1-0.9,0.7-1.6
	c-0.2-0.5-0.7-1-1.1-1.2c-1.2-0.4-2.5-0.6-3.8-0.8c-1.7-0.3-3.4-0.7-4.9-1.6c-3.2-2-4.6-4.9-4.3-8.6c0.4-5.4,3.5-8.7,8.2-10.6
	c5.3-2.1,10.5-1.5,15.7,0.6c2.1,0.9,2.1,0.9,1.3,3.1l-2.3,6.3c-0.1,0.2-0.2,0.4-0.3,0.7c-1.2-0.6-2.3-1.2-3.5-1.7
	c-1.5-0.6-3.1-1-4.7-0.7c-0.3,0-0.7,0.1-0.9,0.4c-0.4,0.4-0.8,0.9-0.8,1.3c0,0.4,0.5,1,0.9,1.1c1.6,0.5,3.3,0.9,5,1.3
	c1.8,0.4,3.5,1,5,2.1c2.6,1.9,3.5,4.6,3.6,7.7c0.1,4.9-2.8,9.2-7.6,11c-1.5,0.6-3.2,0.9-4.8,1.3c-0.3,0.1-0.5,0.1-0.8,0.2
	C339,413.2,335.3,413.2,335.3,413.2z M373.8,413.2c-1.8-0.3-3.6-0.5-5.3-0.9c-1.9-0.5-3.8-1.3-5.7-2c-0.4-0.1-0.5-0.4-0.4-0.8
	c1.2-3,2.4-6.1,3.5-9.1c0-0.1,0.1-0.1,0.2-0.3c0.5,0.4,0.9,0.7,1.3,1c2.4,1.8,5.1,2.9,8.2,2.5c0.5-0.1,1-0.2,1.3-0.5
	c0.4-0.4,0.8-1,0.8-1.4c-0.1-0.5-0.6-1.1-1.1-1.3c-0.9-0.4-2-0.5-3-0.7c-1.7-0.4-3.5-0.6-5-1.4c-4.1-2-5.8-5.8-5-10.4
	c0.9-4.6,3.9-7.5,8.1-9.2c5.2-2,10.4-1.5,15.5,0.6c2.3,1,2.3,1,1.4,3.3c-0.8,2.1-1.6,4.2-2.4,6.3c-0.1,0.1-0.1,0.3-0.2,0.4
	c-1.3-0.6-2.4-1.3-3.7-1.8c-1.5-0.6-3-0.9-4.6-0.6c-0.4,0.1-0.7,0.3-1.1,0.5c-0.9,0.8-0.8,1.8,0.3,2.3c1,0.4,2,0.6,3,0.8
	c1.7,0.4,3.4,0.7,5,1.4c4,1.6,6,5.3,5.6,9.8c-0.5,5.4-3.6,8.6-8.4,10.4c-1.5,0.6-3.1,0.7-4.7,1.1
	C377.4,413.2,373.8,413.2,373.8,413.2z M392.4,296.2c0,35.8-29,64.8-64.7,64.8c-35.9,0-64.8-29-64.7-65.2
	c0.1-35.7,29-64.5,64.7-64.5C363.5,231.4,392.4,260.4,392.4,296.2L392.4,296.2z M204.1,316.6c-2.7,3.2-5.2,6.4-7.9,9.4
	c-1.4,1.5-1.8,3.1-1.8,5.1c0.1,8.3,0,16.6,0,24.9v1h-31.6V235.4h31.6v50l0.2,0.1c0.7-0.9,1.4-1.8,2.1-2.6l29.7-39.1
	c2-2.6,4-5.3,6-7.9c0.2-0.3,0.6-0.5,1-0.5c12.6,0,25.2,0,37.8,0c0.2,0,0.4,0,0.7,0.1c-0.8,1-1.6,2-2.4,2.9l-25,30.4
	c-6.7,8.1-13.3,16.2-20,24.2c-0.3,0.4-0.3,0.6,0,0.9c17.1,20.8,34.1,41.5,51.1,62.3c0.2,0.2,0.3,0.5,0.6,0.8h-1c-13,0-26.1,0-39.1,0
	c-0.5,0-1.1-0.2-1.4-0.7c-10.1-13.1-20.2-26.2-30.3-39.3C204.4,317,204.3,316.8,204.1,316.6z M113.9,357V235.4h31.5V357L113.9,357
	L113.9,357z M113.9,399.3v-7.9h111.5v7.9H113.9z M314.3,412.7h-0.9c-3.9,0-7.8,0-11.7,0c-0.7,0-0.9-0.2-1-0.8
	c-0.2-1-0.5-1.9-0.7-2.8c-0.1-0.5-0.3-0.6-0.8-0.6c-2.7,0-5.5,0-8.2,0c-0.5,0-0.6,0.2-0.7,0.6c-0.2,1.2-0.5,2.4-0.8,3.7h-13.3
	c0-0.2,0.1-0.5,0.1-0.7c3.8-11,7.6-21.9,11.3-32.9c0.3-0.8,0.6-1.1,1.5-1.1c4,0.1,8,0,12.1,0c0.6,0,0.8,0.2,1,0.7
	c3.9,11.1,7.9,22.2,11.8,33.2C314.2,412.1,314.3,412.4,314.3,412.7z M240.2,412.6V378c0.2,0,0.5-0.1,0.7-0.1c5.3,0,10.6,0,16,0
	c2.9,0,5.6,0.5,8.1,2.1c3.6,2.3,5.3,5.6,5.5,9.8c0.1,2.6-0.2,5.1-1.6,7.3c-2,3.3-5.1,5-9,5c-2.1,0-4.3,0-6.4,0h-0.9v10.4
	L240.2,412.6L240.2,412.6z M252.5,387.5c0,2,0,3.7,0,5.5c0,0.1,0.2,0.4,0.3,0.4c1.3,0,2.7,0.2,3.9-0.6c1-0.6,1.5-1.7,1.3-2.8
	c-0.1-1.1-0.7-2-1.8-2.2C255.1,387.6,253.8,387.6,252.5,387.5z M297.6,400l-2.4-10.3l-2.4,10.3H297.6z M363.9,305.7
	c2.9-11.3-0.2-27-12.8-37.3c-13-10.6-31.5-11.2-45.1-1.4c-13.3,9.6-18,26-14.4,39.6l13.1-13.7l6.1,5.7l17.8-20.5l19.1,22.9l6.9-6.4
	C354.6,294.7,363.9,305.7,363.9,305.7z"/>
</svg>
