<?xml version="1.0" standalone="no"?>
<!DOCTYPE svg PUBLIC "-//W3C//DTD SVG 20010904//EN"
 "http://www.w3.org/TR/2001/REC-SVG-20010904/DTD/svg10.dtd">
<svg version="1.0" xmlns="http://www.w3.org/2000/svg"
 width="548.000000pt" height="548.000000pt" viewBox="0 0 548.000000 548.000000"
 preserveAspectRatio="xMidYMid meet">
<metadata>
Created by potrace 1.14, written by Peter Selinger 2001-2017
</metadata>
<g transform="translate(0.000000,548.000000) scale(0.100000,-0.100000)"
fill="#000000" stroke="none">
<path d="M2795 5299 c-332 -130 -368 -142 -465 -154 -95 -12 -123 -11 -285 7
l-181 21 -203 -97 c-171 -81 -211 -96 -252 -96 -44 0 -88 -19 -389 -170 l-340
-170 -308 0 c-226 0 -311 -3 -320 -12 -9 -9 -12 -530 -12 -2285 l0 -2273 2700
0 2700 0 0 2273 c0 1755 -3 2276 -12 2285 -9 9 -95 12 -324 12 l-312 0 -31 50
-31 51 -83 -1 -82 -2 -345 176 -345 176 -65 -14 c-88 -19 -103 -12 -340 154
-258 181 -301 210 -309 210 -3 0 -168 -64 -366 -141z m181 -1120 c247 -34 473
-129 706 -296 83 -59 295 -256 349 -324 l29 -37 -251 -311 -252 -311 -85 81
c-189 179 -379 297 -537 335 -101 24 -268 22 -375 -4 -560 -137 -838 -765
-575 -1297 107 -215 306 -379 535 -442 100 -27 301 -25 404 5 152 44 306 143
403 259 51 60 123 177 123 198 0 13 -62 15 -525 15 l-525 0 0 385 0 385 995 0
995 0 0 -249 c0 -274 -14 -419 -55 -584 -168 -665 -682 -1154 -1340 -1273
-139 -25 -421 -25 -560 0 -362 66 -664 229 -918 496 -458 482 -602 1223 -362
1865 222 594 765 1027 1390 1108 68 9 359 6 431 -4z"/>
</g>
</svg>
