<svg xmlns="http://www.w3.org/2000/svg" fill="none" viewBox="0 0 230 96">
<path fill="white" d="M56.4 0.0996094H2.40002V94.9996H56.4V0.0996094Z"></path>
<path fill="#FF5B00" d="M56.4 63.2998H45.5V72.2998L56.4 65.9998V63.2998Z"></path>
<path fill="#FF5B00" d="M51.2 90.9998L47.8 89.0998V85.1998L54.8 81.1998L56.6 82.0998V73.7998L45.2 80.3998C45.1 80.2998 39.3 76.8998 38.9 76.5998V63.4998L31.6 67.6998L33.3 68.6998V76.7998L29.9 78.7998L26.5 76.7998V72.5998L18.3 77.3998L13.2 74.3998V68.4998L21.4 63.7998L20.5 63.2998H0V94.8998H54.8V88.9998L51.2 90.9998Z"></path>
<path fill="#004683" d="M42.1 53.8002L53.1 47.5002L42.1 41.2002L31.2 47.5002L42.1 53.8002Z"></path>
<path fill="#004683" d="M56.4 41.7002V31.7002H45.5V35.4002L56.4 41.7002Z"></path>
<path fill="#004683" d="M17.8 61.8002V57.9002L21.1 56.0002L28.1 60.0002V61.9002L35.4 57.7002L24.1 51.1002V43.9002L35.4 37.2002L28.1 33.1002V35.1002L21.1 39.0002L17.8 37.1002V33.2002L20.5 31.7002H0V63.3002H20.5L17.8 61.8002Z"></path>
<path fill="#004683" d="M56.4 53.2998L45.5 59.5998V63.2998H56.4V53.2998Z"></path>
<path fill="#D30000" d="M45.5 31.6992H56.4V28.9992L45.5 22.6992V31.6992Z"></path>
<path fill="#D30000" d="M21.4 31.1996L13.2 26.2996V20.4996L18.3 17.4996L26.5 22.1996V18.1996L29.9 16.1996L33.3 18.1996V26.2996L31.6 27.2996L38.9 31.4996V18.3996C40.8 17.2996 43.6 15.6996 45.2 14.5996L56.5 21.1996V12.7996L54.9 13.6996L47.9 9.69961V5.89961L51.2 3.99961L54.8 5.99961V0.0996094H0V31.6996H20.5L21.4 31.1996Z"></path>
<path fill="black" d="M213.9 38.5002H215.5C220.5 38.5002 222.6 42.0002 222.6 47.6002C222.6 52.6002 220.5 56.3002 215.9 56.3002H213.9V38.5002ZM207.5 61.1002H216.4C223.3 61.1002 229.4 57.1002 229.4 47.7002C229.4 37.4002 223.3 33.8002 217.2 33.8002H207.5V61.1002ZM181.2 61.1002H186.8V41.3002H186.9L194.8 61.1002H202.4V33.7002H196.8V52.7002H196.7L188.7 33.7002H181.2V61.1002ZM169 50.4002H162.8L166.1 39.0002H166.2L169 50.4002ZM172 61.1002H178.6L169.8 33.8002H162.7L153.7 61.1002H159.9L161.7 55.0002H170.3L172 61.1002ZM138.5 61.1002H150.5L152.4 56.2002H144.9V33.7002H138.5V61.1002ZM124 50.0002H127.6V56.2002C127.1 56.5002 126.3 56.6002 125.4 56.6002C120.5 56.6002 118.2 52.6002 118.2 47.5002C118.2 44.4002 119.5 38.2002 126.3 38.2002C129.1 38.2002 131.2 39.1002 132.6 39.7002L133 34.3002C131.4 33.8002 129 33.2002 125.8 33.2002C115.4 33.2002 111.6 40.5002 111.6 47.2002C111.6 58.9002 119.6 61.5002 124.6 61.5002C129 61.5002 132.2 60.7002 133.6 60.1002V45.4002H124V50.0002ZM86.5 61.1002H92.1V41.3002H92.2L100.1 61.1002H107.7V33.7002H102.1V52.7002H102L94 33.7002H86.5V61.1002ZM66.2 61.1002H82.5V56.3002H72.3V49.4002H81.4V44.6002H72.3V38.5002H81.9V33.7002H66.2V61.1002Z"></path>
<path fill="black" d="M135.4 67.9996C134.2 67.4996 132.3 67.0996 130.5 67.0996C126.3 67.0996 122.9 69.4996 122.9 73.9996C122.9 77.4996 124 79.1996 128.9 82.1996C132.6 84.3996 133.1 85.5996 133.1 87.7996C133.1 89.9996 131.3 92.0996 128.2 92.0996C126.6 92.0996 124.6 91.2996 123 90.2996V93.8996C124.4 94.5996 126.5 95.0996 128.7 95.0996C133.9 95.0996 136.7 91.6996 136.7 87.2996C136.7 84.1996 135.3 81.7996 131.1 79.2996C127.2 76.9996 126.5 75.8996 126.5 74.1996C126.5 71.8996 128.2 70.0996 130.8 70.0996C132.5 70.0996 134.2 70.5996 135.5 71.3996V67.9996H135.4Z"></path>
<path fill="black" d="M117.3 67.9996C116.1 67.4996 114.2 67.0996 112.4 67.0996C108.2 67.0996 104.8 69.4996 104.8 73.9996C104.8 77.4996 105.9 79.1996 110.8 82.1996C114.5 84.3996 115 85.5996 115 87.7996C115 89.9996 113.2 92.0996 110.1 92.0996C108.5 92.0996 106.5 91.2996 104.9 90.2996V93.8996C106.3 94.5996 108.4 95.0996 110.6 95.0996C115.8 95.0996 118.6 91.6996 118.6 87.2996C118.6 84.1996 117.2 81.7996 113 79.2996C109.1 76.9996 108.4 75.8996 108.4 74.1996C108.4 71.8996 110.1 70.0996 112.7 70.0996C114.4 70.0996 116.1 70.5996 117.4 71.3996V67.9996H117.3Z"></path>
<path fill="black" d="M93.8 67.3994H90L80.8 94.6994H84.2L86.4 87.5994H96.8L99 94.6994H102.6L93.8 67.3994ZM87.5 84.5994L91.8 70.9994H91.9L96.1 84.5994H87.5Z"></path>
<path fill="black" d="M78.6 69.4994C77.2 68.0994 75.4 67.3994 72.7 67.3994H66.1V94.6994H69.5V83.2994H71.8C77.6 83.2994 80.7 80.4994 80.7 75.1994C80.8 72.6994 80 70.7994 78.6 69.4994ZM71.5 80.3994H69.6V70.1994H71.6C75.1 70.1994 77.2 71.6994 77.2 75.3994C77.2 78.4994 75.7 80.3994 71.5 80.3994Z"></path>
<path fill="black" d="M130.5 27.4H138L143.4 0H137.8L134.3 19.4H134.2L130.9 0H123.4L120.1 19.4H120L116.7 0H110.5L116 27.3H123.5L126.9 6.1H127L130.5 27.4ZM92.3 27.4H108.6V22.6H98.5V15.7H107.6V10.9H98.5V4.8H108.1V0H92.3V27.4ZM66.1 27.4H71.7V7.6H71.8L79.7 27.4H87.3V0H81.7V19H81.6L73.6 0H66.1V27.4Z"></path>
<path fill="black" d="M145.25 92.25V87.6375H147.588C147.775 87.6375 147.979 87.6917 148.2 87.8C148.421 87.9042 148.608 88.0667 148.763 88.2875C148.921 88.5042 149 88.7792 149 89.1125C149 89.45 148.919 89.7375 148.756 89.975C148.594 90.2083 148.396 90.3854 148.162 90.5063C147.933 90.6271 147.717 90.6875 147.512 90.6875H145.825V89.9375H147.2C147.337 89.9375 147.485 89.8688 147.644 89.7313C147.806 89.5938 147.887 89.3875 147.887 89.1125C147.887 88.8292 147.806 88.6375 147.644 88.5375C147.485 88.4375 147.346 88.3875 147.225 88.3875H146.263V92.25H145.25ZM148.038 90.075L149.188 92.25H148.075L146.95 90.075H148.038ZM147 95C146.308 95 145.66 94.8708 145.056 94.6125C144.452 94.3542 143.921 93.9958 143.462 93.5375C143.004 93.0792 142.646 92.5479 142.388 91.9438C142.129 91.3396 142 90.6917 142 90C142 89.3083 142.129 88.6604 142.388 88.0562C142.646 87.4521 143.004 86.9208 143.462 86.4625C143.921 86.0042 144.452 85.6458 145.056 85.3875C145.66 85.1292 146.308 85 147 85C147.692 85 148.34 85.1292 148.944 85.3875C149.548 85.6458 150.079 86.0042 150.538 86.4625C150.996 86.9208 151.354 87.4521 151.612 88.0562C151.871 88.6604 152 89.3083 152 90C152 90.6917 151.871 91.3396 151.612 91.9438C151.354 92.5479 150.996 93.0792 150.538 93.5375C150.079 93.9958 149.548 94.3542 148.944 94.6125C148.34 94.8708 147.692 95 147 95ZM147 93.8C147.7 93.8 148.338 93.6292 148.913 93.2875C149.488 92.9458 149.946 92.4875 150.288 91.9125C150.629 91.3375 150.8 90.7 150.8 90C150.8 89.3 150.629 88.6625 150.288 88.0875C149.946 87.5125 149.488 87.0542 148.913 86.7125C148.338 86.3708 147.7 86.2 147 86.2C146.3 86.2 145.662 86.3708 145.087 86.7125C144.512 87.0542 144.054 87.5125 143.712 88.0875C143.371 88.6625 143.2 89.3 143.2 90C143.2 90.7 143.371 91.3375 143.712 91.9125C144.054 92.4875 144.512 92.9458 145.087 93.2875C145.662 93.6292 146.3 93.8 147 93.8Z"></path>
</svg>
