<svg xmlns="http://www.w3.org/2000/svg" viewBox="0 0 205 91.13" fill="#fff"><g fill-rule="evenodd"><path d="M105.3 11.93S96.67-9.12 70 4.7c-22.2 11.5-45.61 26-53.8 20.13 0 0 3.89 12 61-18.08 0 0 19.04-9.23 28.1 5.18z"/><path d="M159.89 18.7s.88.4.51.11c-3.88-3.09-28.71-21-61.27-11C70 16.64 51.92 33.58 32 27.17c0 0 17 11.23 75.15-15.61-.01 0 25.78-11.43 52.74 7.14z"/><path d="M168.4 21.49c.42.13.46.16.62.07 0 0-17.47-11.45-91 1.67S0 12.68 0 12.68s5 24.64 75.34 16.87c68.81-7.55 73.83-13.83 93.06-8.06z"/><path d="M205 30.78s-19.4-21.91-80.5-2.58C70.43 45.32 46 35.94 46 35.94s13.58 12.56 87.52-7.09c-.05 0 43.84-15.47 71.48 1.93z"/></g><path d="M55.11 61.35c-1.34 1.21-2.74 1.26-4.6 1.26h-6.82v5h-3.33v-14H51.1a5.41 5.41 0 0 1 3.68 1 4.25 4.25 0 0 1 1.83 3.43 4.32 4.32 0 0 1-1.5 3.31zm-4.6-4.86h-6.82v3.35h6.82c1.6 0 2.67-.24 2.67-1.75s-1.3-1.6-2.67-1.6zM69.4 68.12c-5.32 0-10.34-2.78-10.34-7.5s5.12-7.39 10.37-7.39 10.41 2.48 10.41 7.31-5.09 7.58-10.44 7.58zm.07-12c-3.4 0-7 1.4-7 4.59s3.66 4.58 7 4.58 6.92-1.64 6.92-4.69-3.63-4.51-6.92-4.51zm23.23 12c-5.32 0-10.41-2.45-10.41-7.28 0-4.67 4.7-7.61 10.08-7.61 3.66 0 5.78.94 8.65 2.7l-2 2.45a10.71 10.71 0 0 0-6.72-2.29c-3.2 0-6.63 1.75-6.63 4.64s3.56 4.58 6.79 4.58a13.05 13.05 0 0 0 7.31-2l1.53 2.59a15.42 15.42 0 0 1-8.6 2.22zm20.23 0c-5.32 0-10.34-2.78-10.34-7.5s5.12-7.39 10.37-7.39 10.41 2.48 10.41 7.31-5.09 7.58-10.44 7.58zm.06-12c-3.39 0-7 1.4-7 4.59s3.66 4.58 7 4.58 6.91-1.64 6.91-4.69-3.61-4.51-6.9-4.51zm25.45 11.54-9.39-9.47v9.47h-3.36v-14h3.36l9.39 9.44v-9.41h3.37v14zm16.56.46c-5.32 0-10.34-2.78-10.34-7.5s5.12-7.39 10.37-7.39 10.41 2.48 10.41 7.31-5.1 7.58-10.44 7.58zm.06-12c-3.39 0-7 1.4-7 4.59s3.66 4.58 7 4.58 6.94-1.67 6.94-4.72-3.65-4.48-6.95-4.48zM34.51 90.64v-8.9l-5.9 7-6-7v8.9h-3.33v-14h3.39l5.94 7 5.9-7h3.36v14zM51 91.1c-5.31 0-10.34-2.78-10.34-7.5s5.12-7.39 10.38-7.39 10.41 2.48 10.41 7.31S56.37 91.1 51 91.1zm.07-12c-3.39 0-7 1.4-7 4.59s3.65 4.58 7 4.58S58 86.6 58 83.55s-3.62-4.48-6.92-4.48zm27.58 9.79c-1.63 1.67-4.6 2.21-7.08 2.21-4.7 0-8-1.81-8-5.93v-8.5H67v8.5c0 2.86 2.22 3.1 5.09 3.1a8.3 8.3 0 0 0 3.26-.62c1-.44 1.28-1 1.28-2.48v-8.5h3.32v8.5a4.64 4.64 0 0 1-1.3 3.72zM96 90.64l-9.4-9.47v9.47h-3.38v-14h3.36L96 86.11v-9.44h3.36v14zm15.9-11.19v11.19h-3.36V79.45h-6.13v-2.78h15.85v2.78zM134 90.64l-1.7-2.94h-9.89l-1.69 2.94h-3.85l8.19-14h4.5l8.29 14zm-6.7-11.25-3.3 5.53h6.52zm13.48 11.25v-14h3.33v14zm19.84 0-9.4-9.47v9.47h-3.36v-14h3.36l9.4 9.44v-9.41H164v14zm15.82.49a15.54 15.54 0 0 1-9.44-2.48l1.56-2.51a16.18 16.18 0 0 0 9 2.16c1.47 0 4.24-.38 4.24-2 0-1.13-1.47-1.35-2.54-1.4l-5.06-.11c-3.1-.11-6.17-1.38-6.17-4.29 0-3.51 4.54-4.29 7.93-4.29a18.65 18.65 0 0 1 8.15 1.79l-1.53 2.49a17.65 17.65 0 0 0-7.44-1.49c-1.21 0-3.72.26-3.72 1.62 0 1.13 2 1.32 3 1.35l4.4.08c3.4.1 6.4 1.21 6.4 4.39 0 3.88-5.06 4.69-8.78 4.69zm9.26-12.29h.3a.67.67 0 0 0 .1.3.52.52 0 0 0 .24.19.87.87 0 0 0 .37.07 1 1 0 0 0 .32-.05.57.57 0 0 0 .21-.15.42.42 0 0 0 .06-.21.34.34 0 0 0-.06-.2.52.52 0 0 0-.22-.14 2.6 2.6 0 0 0-.43-.12 1.87 1.87 0 0 1-.46-.15.66.66 0 0 1-.26-.23.62.62 0 0 1 0-.64.6.6 0 0 1 .3-.24 1.09 1.09 0 0 1 .45-.08 1.19 1.19 0 0 1 .47.08.66.66 0 0 1 .31.26.64.64 0 0 1 .12.38h-.31a.52.52 0 0 0-.16-.35.66.66 0 0 0-.42-.12.69.69 0 0 0-.42.1.33.33 0 0 0-.13.26.29.29 0 0 0 .09.22 1.4 1.4 0 0 0 .48.17 4 4 0 0 1 .53.15.73.73 0 0 1 .31.25.57.57 0 0 1 .1.34.59.59 0 0 1-.11.36.68.68 0 0 1-.31.27 1.19 1.19 0 0 1-.47.09 1.47 1.47 0 0 1-.55-.09.8.8 0 0 1-.34-.29.73.73 0 0 1-.11-.43zm2.35.77v-2.42h.47l.58 1.72.12.35c0-.09.07-.21.13-.38l.58-1.69h.43v2.42h-.31v-2l-.71 2h-.29l-.69-2v2z"/></svg>