<?xml version="1.0" encoding="UTF-8" standalone="no"?>
<!DOCTYPE svg PUBLIC "-//W3C//DTD SVG 1.1//EN" "http://www.w3.org/Graphics/SVG/1.1/DTD/svg11.dtd">
<svg width="100%" height="100%" viewBox="0 0 512 512" version="1.1" xmlns="http://www.w3.org/2000/svg" xmlns:xlink="http://www.w3.org/1999/xlink" xml:space="preserve" xmlns:serif="http://www.serif.com/" style="fill-rule:evenodd;clip-rule:evenodd;stroke-linejoin:round;stroke-miterlimit:2;">
    <g>
        <g transform="matrix(1.312317,0,0,2.212608,-42.041056,-54.427689)">
            <path d="M422.185,68.295L422.185,212.304C422.185,236.421 389.174,256 348.513,256L105.708,256C65.047,256 32.036,236.421 32.036,212.304L32.036,68.295C32.036,44.178 65.047,24.599 105.708,24.599L348.513,24.599C389.174,24.599 422.185,44.178 422.185,68.295Z" style="fill:rgb(41,45,49);"/>
        </g>
        <g transform="matrix(0.974217,0,0,0.974217,12.355752,21.734657)">
            <g transform="matrix(2.99244,0,0,2.99244,503.809788,152.05222)">
                <path d="M0,31.45L-42.352,27.431L-70.024,8.986L-106.141,26.153L-108.602,23.533L-96.298,17.145L-113.798,4.516L-165.88,26.252C-165.88,26.252 -165.993,19.404 -165.99,19.323C-165.989,19.24 -113.798,0 -113.798,0L-92.358,15.533L-70.098,4.783L-41.247,23.866L0.366,27.675L0,31.45Z" style="fill:rgb(215,30,61);fill-rule:nonzero;"/>
            </g>
            <g transform="matrix(2.99244,0,0,2.99244,62.832442,165.663932)">
                <path d="M0,77.394C0,77.394 -19.656,43.823 -18.516,21.704C-9.45,17.92 33.566,-0.033 33.566,-0.033L51.066,12.596L38.763,18.985L41.223,21.604L77.341,4.437L105.011,22.882L147.364,26.901C147.364,26.901 147.713,36.223 117.009,34.817C70.543,33.901 66.648,60.042 67.366,77.427C63.317,77.427 45.576,77.416 45.576,77.416C45.576,77.416 51.003,40.376 36.145,40.75C21.289,41.126 28.249,77.427 28.249,77.427L0,77.394Z" style="fill:rgb(253,210,5);fill-rule:nonzero;"/>
            </g>
            <g transform="matrix(2.99244,0,0,2.99244,7.181434,91.983174)">
                <path d="M0,41.641C0,41.641 -3.748,4.111 47.401,-2.492C96.58,-6.465 141.476,27.973 141.476,27.973C141.476,27.973 167.816,41.844 166.296,48.106C164.982,47.988 124.683,44.295 124.683,44.295L95.832,25.214L73.571,35.964L52.131,20.43L0,41.641Z" style="fill:rgb(253,210,5);fill-rule:nonzero;"/>
            </g>
            <g transform="matrix(2.99244,0,0,2.99244,447.34783,197.678553)">
                <path d="M0,4.679C1.291,4.679 2.341,3.628 2.341,2.338C2.341,1.045 1.291,0 0,0C-1.292,0 -2.34,1.045 -2.34,2.338C-2.34,3.628 -1.292,4.679 0,4.679" style="fill:rgb(215,30,61);fill-rule:nonzero;"/>
            </g>
        </g>
    </g>
</svg>
